PathFileType	4	(X/Y/Z)	1_coords_data.trc
DataRate	CameraRate	NumFrames	NumMarkers	Units	OrigDataRate	OrigDataStartFrame	OrigNumFrames
30.0	30.0	6	21	m	30.0	21	61
Frame#	Time	THUMB_TIP	THUMB_IP	THUMB_MCP	THUMB_CMC	INDEX_TIP	INDEX_DIP	INDEX_PIP	INDEX_MCP	MIDDLE_TIP	MIDDLE_DIP	MIDDLE_PIP	MIDDLE_MCP	RING_TIP	RING_DIP	RING_PIP	RING_MCP	PINKY_TIP	PINKY_DIP	PINKY_PIP	PINKY_MCP	WRIST
X1	Y1	Z1	X2	Y2	Z2	X3	Y3	Z3	X4	Y4	Z4	X5	Y5	Z5	X6	Y6	Z6	X7	Y7	Z7	X8	Y8	Z8	X9	Y9	Z9	X10	Y10	Z10	X11	Y11	Z11	X12	Y12	Z12	X13	Y13	Z13	X14	Y14	Z14	X15	Y15	Z15	X16	Y16	Z16	X17	Y17	Z17	X18	Y18	Z18	X19	Y19	Z19	X20	Y20	Z20	X21	Y21	Z21
19	0.6666666666666637	0.47070678310458347	-0.024209880184243193	-0.17034871156874282	0.47662320449196743	-0.02675779614332152	-0.1482918740295039	0.4745377513186767	-0.03542710049971831	-0.11847050506296958	0.478422379832779	-0.031063512420805073	-0.07424654368019667	0.508979130167116	-0.01686881341204982	-0.10481498831845382	0.5266374469355716	-0.013453829776396198	-0.10694142563779907	0.5365987228754057	0.005906503957226583	-0.11950965114394058	0.4945607363277543	0.012337537724689152	-0.12176477546451403	0.506481478599642	-0.018067343134212432	-0.08585457409998265	0.5236861329153539	-0.01248799647414689	-0.08492142849308604	0.5397622488112135	0.0096879779582143	-0.09488105728527285	0.5000854525566724	0.028849634689001036	-0.10227907535142589	0.503186532249931	-0.006921208490973885	-0.07237692443744526	0.5205516557411114	-0.0030711238378986483	-0.0694393515787387	0.5366510506713336	0.015491369546304479	-0.07349191881965567	0.5043164300619687	0.03834912463314655	-0.08165991590819466	0.5023565888123916	-0.0074497087297348275	-0.05480752953985957	0.5189115234173963	-0.004725876215214031	-0.051414171813822684	0.531055112962578	0.01235571517127354	-0.05266496662642395	0.5051610987922346	0.036794144063517886	-0.05842228148882089	0.4622830810018609	-0.023011742144276925	-0.051989820119430985
20	0.6999999999999968	0.47081206001857623	-0.024274135040778022	-0.17034632025305385	0.4766996945126285	-0.026810533879079834	-0.14828045428324638	0.4745748817711875	-0.03545605118021533	-0.11845495845485193	0.4784360461991188	-0.031081816123868955	-0.07422999404636077	0.5090312943622783	-0.01690354787682824	-0.10478660432544573	0.526675223883575	-0.013419719310922784	-0.10692077619549256	0.5365921996716079	0.005975926320843206	-0.11946957513190581	0.4945456815320647	0.01233333519980584	-0.1217738664951557	0.5065240864175224	-0.018030009766365263	-0.08582632573524651	0.5237245120629344	-0.012434694200119778	-0.0849110108545732	0.539767284742222	0.009756958410967465	-0.09488946510107499	0.5000609178681846	0.028855871028244162	-0.10229107894549971	0.5032254055611401	-0.006898549281560307	-0.07234347848331946	0.5205890604900044	-0.0030311070186327393	-0.06942005961934328	0.5366396350551288	0.015568280110034527	-0.07349704791554279	0.5042694755157674	0.03836675881087692	-0.08168990909607876	0.5023850485520442	-0.007440924451750153	-0.05477955592335049	0.5189333769193281	-0.004680168377964478	-0.05138381533408232	0.5310378295214873	0.012428993533780908	-0.052637140862332066	0.505114587606923	0.036825495263470565	-0.05844056080166293	0.4622830810018609	-0.023011742144276925	-0.051989820119430985
21	0.7333333333333302	0.4709445309868187	-0.02433790879501585	-0.1703421753933339	0.47678728908503615	-0.026868453434048756	-0.14826371254748394	0.4746173658717775	-0.03550066344249736	-0.1184376101601688	0.4784525652282657	-0.03109382562113472	-0.07421362315863078	0.5090727786694474	-0.016945403160004258	-0.10474980677087886	0.5267037063741962	-0.013402680663097577	-0.10689445256443875	0.5365795430331695	0.006024494539022873	-0.11942691229712477	0.49452683437122463	0.012319155601382192	-0.12178975598717673	0.5065441423250866	-0.018029240205471253	-0.08579060169324071	0.5237367761321685	-0.01240627004015682	-0.08489866599176488	0.5397579644631896	0.0097987900106149	-0.0948819711861173	0.5000355496474574	0.028852709501541396	-0.1023133798170699	0.5032522004602583	-0.006897946082269457	-0.07232378926158645	0.5206081003452174	-0.0029875746131249326	-0.06941144756518802	0.5366269579853523	0.01563445114893658	-0.07350978081447512	0.5042247382457452	0.038376118822166405	-0.08173374223137131	0.5024196432648148	-0.007427723906324291	-0.054765435952430885	0.5189614653368599	-0.004634769151393714	-0.05136432932756474	0.5310309180242743	0.012498665294184863	-0.052623596942224515	0.5050746972613089	0.03685171310879631	-0.05846201426573461	0.4622830810018609	-0.023011742144276925	-0.051989820119430985
22	0.7666666666666633	0.471077543767821	-0.02440743367936371	-0.17033979252342213	0.47686452911498384	-0.026933888895700253	-0.1482461775038838	0.47465795956052115	-0.03555242092859545	-0.11841880825349099	0.4784669747069753	-0.031114244527224444	-0.07419569219588606	0.5091036437999281	-0.016967485626757095	-0.10471401900981148	0.5267240581869573	-0.01337490643538286	-0.10686212784855342	0.5365660935196116	0.006074953158935248	-0.11938599048242554	0.49450697260159704	0.012304608038071096	-0.12180628833407375	0.5065800988086335	-0.018000473135724948	-0.08576783781250841	0.5237649338018993	-0.012351205266288301	-0.08489192754679509	0.5397541943536746	0.009867942564016685	-0.094895055392749	0.5000012791546045	0.028853544854965274	-0.10233821062594672	0.5032485801569977	-0.006891901403808243	-0.07229607418250339	0.5205960258377658	-0.002940323665439948	-0.06938898599491117	0.5365989328525526	0.015689777318552256	-0.07351285352459014	0.504176684939945	0.03838930296741194	-0.08177422203169527	0.5024281020260757	-0.007426000324704529	-0.05472726969000008	0.5189651597230162	-0.004607168886820445	-0.05132434270681985	0.5309958296842736	0.012552704787856639	-0.05259467130699502	0.5050298871511036	0.036879894793825585	-0.05849730680121357	0.4622830810018609	-0.023011742144276925	-0.051989820119430985
23	0.7999999999999965	0.47118935150582747	-0.024444498440254647	-0.17033782190377533	0.47691874917771465	-0.026975120706482558	-0.14822967966470318	0.4746828980040999	-0.03559503181980761	-0.11840488960797657	0.4784746871785568	-0.031134966137935316	-0.0741824954058321	0.5091098325270529	-0.016986618775990392	-0.10468129075967514	0.5267147744208387	-0.01332658760273353	-0.10684235362947148	0.5365358359530752	0.006132424964703231	-0.11936846289294051	0.4944685316628614	0.012289612877852352	-0.12183159925878206	0.506581323579025	-0.01797495287876727	-0.08575985990213175	0.5237600084356387	-0.0123069392186278	-0.0848844127331847	0.539719860254188	0.009925490921827818	-0.09490497808548481	0.49994579075119905	0.028854797501247864	-0.10237844238216331	0.5032392713392058	-0.006841925195958276	-0.07230419626816742	0.5205814867378324	-0.0028706821257195037	-0.0693927029151411	0.536562444181542	0.015773848098597942	-0.07353642960700457	0.5041047590194809	0.038409834512503016	-0.08183291241540214	0.5024215969542165	-0.0074153752220679214	-0.05469425452287546	0.5189545810564415	-0.004547468496077123	-0.0513126058588963	0.5309581703315305	0.012630578682937932	-0.05259344879638128	0.5049679519641485	0.03691801293327768	-0.058552688492116034	0.46228308100186094	-0.023011742144276925	-0.051989820119430985
24	0.8333333333333297	0.47132519272110857	-0.024518959558755937	-0.17033530036659023	0.4769892833180553	-0.02703764485173299	-0.1482089743700647	0.4747203903197616	-0.03565197223514183	-0.1183850663717197	0.4784912856726008	-0.03114898956810186	-0.07416523490055427	0.5091292570231392	-0.017013378709492044	-0.10464196996530462	0.5267127312994249	-0.013266864631427677	-0.10682944902533342	0.5365017703516191	0.0061981258244223625	-0.11937132663549554	0.49442517637045447	0.012283257168990036	-0.12185477372846687	0.5066090594491404	-0.01792113485219604	-0.08574600289758849	0.5237790652573968	-0.012224229737259784	-0.08488799785340162	0.5396861153900716	0.010031449568721817	-0.09494086036643112	0.4998697826698334	0.02886937616671903	-0.10242017124376157	0.5032602251763352	-0.006808795251709299	-0.0722874072375499	0.5205954027374943	-0.0027945852721724673	-0.06939297514070042	0.5365208855726227	0.015890036507994365	-0.07356956279094229	0.5040127171524391	0.03844456928531226	-0.08189019204370163	0.5024269770539793	-0.007332694737830825	-0.054716454408629045	0.5189536773865044	-0.0044576554347972586	-0.05131023581245475	0.5309242369395615	0.01274214629249526	-0.05260813547288323	0.5048866199320687	0.03697062260762074	-0.05860037103388538	0.4622830810018609	-0.023011742144276925	-0.051989820119430985
